<svg width="160" height="64" viewBox="0 0 160 64" fill="none" xmlns="http://www.w3.org/2000/svg">
<path d="M47.6179 31.4867C48.5014 31.4598 49.3784 31.644 50.1743 32.0237C50.9703 32.4034 51.6617 32.9673 52.1896 33.6675V16.4105C52.1888 16.3344 52.1669 16.2601 52.1262 16.1955C52.0855 16.131 52.0276 16.0787 51.9589 16.0445C51.8901 16.0102 51.8132 15.9953 51.7364 16.0013C51.6597 16.0073 51.5861 16.0341 51.5237 16.0786L29.9039 31.6793H30.4799C32.7238 31.6793 33.8757 33.0897 33.8757 34.6424C33.8956 35.1564 33.7646 35.6651 33.4985 36.1073C33.2324 36.5494 32.8425 36.9061 32.3758 37.1343C32.3437 37.1482 32.3163 37.1709 32.2971 37.1999C32.2779 37.2288 32.2677 37.2627 32.2677 37.2973C32.2677 37.3319 32.2779 37.3657 32.2971 37.3947C32.3163 37.4236 32.3437 37.4464 32.3758 37.4603C32.8994 37.6908 33.3425 38.0688 33.6498 38.5468C33.9572 39.0248 34.115 39.5816 34.1037 40.1478C34.1037 41.9079 32.9367 43.3035 30.6749 43.3035H24.5042C24.4427 43.3035 24.3836 43.2795 24.3398 43.2368C24.296 43.1941 24.271 43.1361 24.2702 43.0753V35.7387L8.15216 47.3451C8.08896 47.3901 8.04193 47.4537 8.01788 47.5269C7.99384 47.6 7.99405 47.6789 8.01847 47.7519C8.04289 47.8249 8.09026 47.8884 8.15368 47.933C8.21711 47.9776 8.29329 48.0011 8.37114 48H51.8207C51.918 48 52.0114 47.962 52.0805 47.8943C52.1496 47.8266 52.1889 47.7346 52.1896 47.6385V41.7656C50.9539 42.9135 49.314 43.5406 47.6179 43.5139C44.1531 43.5139 41.3183 41.1612 41.3183 37.4988C41.3183 33.8364 44.1531 31.4867 47.6179 31.4867ZM39.0024 43.0931C39.0024 43.1489 38.98 43.2024 38.94 43.2419C38.9001 43.2813 38.8459 43.3035 38.7894 43.3035H36.6895C36.633 43.3035 36.5789 43.2813 36.5389 43.2419C36.499 43.2024 36.4765 43.1489 36.4765 43.0931V31.8897C36.4765 31.8339 36.499 31.7803 36.5389 31.7409C36.5789 31.7014 36.633 31.6793 36.6895 31.6793H38.7894C38.8459 31.6793 38.9001 31.7014 38.94 31.7409C38.98 31.7803 39.0024 31.8339 39.0024 31.8897V43.0931ZM26.7691 36.0676V33.9757C26.7687 33.9602 26.7714 33.9449 26.7771 33.9305C26.7828 33.9162 26.7914 33.9031 26.8023 33.892C26.8132 33.881 26.8262 33.8722 26.8406 33.8662C26.855 33.8602 26.8705 33.8571 26.8861 33.8571H29.9039C30.7529 33.8571 31.2838 34.3609 31.2838 35.0779C31.2838 35.795 30.7649 36.2958 29.9039 36.2958H27.0001C26.9696 36.2962 26.9394 36.2905 26.9112 36.2792C26.883 36.2679 26.8574 36.2511 26.8359 36.2298C26.8143 36.2086 26.7973 36.1833 26.7859 36.1554C26.7744 36.1275 26.7687 36.0977 26.7691 36.0676ZM26.7691 40.8945V38.7048C26.7687 38.6747 26.7744 38.6448 26.7859 38.617C26.7973 38.5891 26.8143 38.5638 26.8359 38.5425C26.8574 38.5213 26.883 38.5045 26.9112 38.4932C26.9394 38.4818 26.9696 38.4762 27.0001 38.4766H30.0209C30.9959 38.4766 31.5208 39.0692 31.5208 39.8011C31.5208 40.6367 30.9569 41.1256 30.0209 41.1256H27.0001C26.9695 41.1256 26.9392 41.1196 26.911 41.108C26.8828 41.0963 26.8572 41.0792 26.8357 41.0577C26.8142 41.0362 26.7972 41.0107 26.7858 40.9827C26.7744 40.9547 26.7687 40.9247 26.7691 40.8945ZM50.6027 35.0928L52.1866 34.2423V36.8706H47.2489C47.1829 36.8706 47.1196 36.8965 47.0729 36.9426C47.0262 36.9888 46.9999 37.0513 46.9999 37.1165V38.7877C46.9999 38.853 47.0262 38.9155 47.0729 38.9616C47.1196 39.0077 47.1829 39.0337 47.2489 39.0337H49.9248C49.9741 39.0337 50.0214 39.053 50.0563 39.0875C50.0912 39.1219 50.1108 39.1686 50.1108 39.2174V40.3374C50.1117 40.3654 50.1063 40.3933 50.0949 40.4189C50.0834 40.4446 50.0663 40.4674 50.0448 40.4856C49.3509 41.0196 48.4975 41.3113 47.6179 41.3152C45.461 41.3152 43.9041 39.6944 43.9041 37.4988C43.9041 35.3031 45.461 33.6823 47.6179 33.6823C48.1368 33.688 48.6473 33.8119 49.1098 34.0441C49.5723 34.2764 49.9744 34.6109 50.2848 35.0216C50.3214 35.0678 50.373 35.1001 50.4309 35.1131C50.4889 35.1261 50.5496 35.1189 50.6027 35.0928ZM54.0255 37.481C54.0255 33.8897 56.6354 31.4689 59.9982 31.4689C60.889 31.4483 61.7694 31.6612 62.5498 32.0859C63.3302 32.5106 63.9827 33.132 64.441 33.8868C64.4557 33.9096 64.4655 33.9352 64.4697 33.962C64.474 33.9888 64.4725 34.0161 64.4654 34.0423C64.4584 34.0685 64.4459 34.093 64.4288 34.1141C64.4117 34.1353 64.3903 34.1527 64.366 34.1653L63.022 34.8853C62.9791 34.9075 62.9292 34.9128 62.8825 34.9001C62.8358 34.8875 62.7956 34.8579 62.77 34.8172C62.4737 34.3536 62.0651 33.9703 61.5811 33.7018C61.0972 33.4333 60.5532 33.2881 59.9982 33.2793C57.7453 33.2793 56.0744 35.0246 56.0744 37.481C56.0744 39.9374 57.7453 41.6827 59.9982 41.6827C60.5532 41.6704 61.0966 41.5234 61.5805 41.2547C62.0644 40.986 62.474 40.6038 62.773 40.1419C62.7981 40.1014 62.8375 40.0717 62.8836 40.0585C62.9296 40.0454 62.979 40.0497 63.022 40.0707L64.375 40.7641C64.4026 40.7756 64.4272 40.7932 64.4468 40.8156C64.4665 40.838 64.4806 40.8645 64.4881 40.8932C64.4957 40.9219 64.4964 40.9519 64.4903 40.9809C64.4842 41.0099 64.4714 41.0371 64.453 41.0604C63.574 42.379 62.1821 43.5109 59.9982 43.5109C56.6354 43.505 54.0255 41.0634 54.0255 37.481ZM65.6019 37.481C65.6019 34.589 67.2758 32.34 69.8016 31.6704C74.0884 30.5415 78.0212 34.5001 77.0882 38.9181C76.8492 40.2238 76.1462 41.4024 75.1057 42.2416C74.0652 43.0809 72.7556 43.5257 71.4126 43.4961C68.0017 43.505 65.6019 40.9597 65.6019 37.481ZM75.2013 37.481C75.2013 35.075 73.7014 33.2793 71.4276 33.2793C69.1537 33.2793 67.6508 35.0839 67.6508 37.481C67.6508 39.8781 69.1207 41.6827 71.4246 41.6827C73.7284 41.6827 75.2013 39.8781 75.2013 37.481ZM89.4865 43.1494V34.3194L85.9047 43.2324C85.8974 43.2508 85.8846 43.2666 85.868 43.2778C85.8514 43.2889 85.8318 43.2947 85.8117 43.2946H85.0618C85.0421 43.2946 85.023 43.2886 85.0069 43.2774C84.9908 43.2663 84.9785 43.2506 84.9718 43.2324L81.372 34.3194V43.1583C81.3712 43.1942 81.3564 43.2284 81.3307 43.2538C81.305 43.2792 81.2704 43.2938 81.234 43.2946H79.4341C79.3972 43.2946 79.3618 43.2803 79.3354 43.2548C79.3091 43.2294 79.2939 43.1947 79.2931 43.1583V31.8067C79.2931 31.7698 79.308 31.7343 79.3344 31.7082C79.3608 31.6821 79.3967 31.6674 79.4341 31.6674H82.0229C82.0786 31.6698 82.1325 31.6874 82.1786 31.7182C82.2247 31.7491 82.2611 31.792 82.2839 31.8422L85.4338 39.8218L88.5656 31.8511C88.5865 31.7996 88.6225 31.7555 88.669 31.7243C88.7155 31.6932 88.7704 31.6765 88.8266 31.6763H91.4154C91.4523 31.6771 91.4874 31.6921 91.5132 31.7181C91.539 31.7442 91.5534 31.7792 91.5534 31.8156V43.1672C91.5526 43.2031 91.5379 43.2373 91.5121 43.2627C91.4864 43.2881 91.4518 43.3027 91.4154 43.3035H89.6155C89.5786 43.3012 89.5442 43.2847 89.5195 43.2575C89.4948 43.2304 89.4819 43.1947 89.4835 43.1583L89.4865 43.1494ZM109.864 43.0753V31.8778C109.864 31.822 109.887 31.7685 109.927 31.729C109.967 31.6896 110.021 31.6674 110.077 31.6674H117.733C117.789 31.6674 117.844 31.6896 117.884 31.729C117.923 31.7685 117.946 31.822 117.946 31.8778V33.2527C117.946 33.3085 117.923 33.362 117.884 33.4014C117.844 33.4409 117.789 33.4631 117.733 33.4631H112.144C112.088 33.4631 112.034 33.4852 111.994 33.5247C111.954 33.5641 111.931 33.6176 111.931 33.6734V36.2513C111.931 36.3071 111.954 36.3606 111.994 36.4001C112.034 36.4395 112.088 36.4617 112.144 36.4617H117.607C117.663 36.4617 117.718 36.4839 117.758 36.5233C117.797 36.5628 117.82 36.6163 117.82 36.6721V38.047C117.82 38.1028 117.797 38.1563 117.758 38.1957C117.718 38.2352 117.663 38.2573 117.607 38.2573H112.144C112.088 38.2573 112.034 38.2795 111.994 38.319C111.954 38.3584 111.931 38.4119 111.931 38.4677V41.2886C111.931 41.3444 111.954 41.3979 111.994 41.4373C112.034 41.4768 112.088 41.4989 112.144 41.4989H117.73C117.786 41.4989 117.841 41.5211 117.881 41.5606C117.92 41.6 117.943 41.6535 117.943 41.7093V43.0842C117.943 43.14 117.92 43.1935 117.881 43.233C117.841 43.2724 117.786 43.2946 117.73 43.2946H110.074C110.018 43.2946 109.964 43.2724 109.924 43.233C109.884 43.1935 109.861 43.14 109.861 43.0842L109.864 43.0753ZM127.563 43.182L125.088 39.0337C125.07 39.0022 125.043 38.976 125.011 38.9579C124.979 38.9397 124.943 38.9301 124.906 38.93H123.169C123.113 38.9299 123.059 38.9517 123.019 38.9905C122.979 39.0293 122.956 39.0821 122.956 39.1374V43.0872C122.956 43.1422 122.934 43.1949 122.894 43.2338C122.855 43.2727 122.801 43.2946 122.746 43.2946H121.099C121.043 43.2946 120.989 43.2728 120.949 43.234C120.909 43.1952 120.887 43.1424 120.886 43.0872V31.8778C120.886 31.822 120.908 31.7685 120.948 31.729C120.988 31.6896 121.042 31.6674 121.099 31.6674H126.069C128.403 31.6674 129.942 33.149 129.942 35.312C129.942 37.2262 128.742 38.3403 127.428 38.6662C127.395 38.6732 127.364 38.688 127.338 38.7092C127.312 38.7304 127.291 38.7575 127.278 38.7882C127.264 38.8189 127.258 38.8524 127.26 38.8858C127.263 38.9192 127.273 38.9516 127.29 38.9803L129.828 42.9775C129.848 43.0091 129.859 43.0453 129.86 43.0824C129.861 43.1195 129.852 43.1562 129.833 43.1886C129.815 43.221 129.788 43.2479 129.755 43.2666C129.723 43.2852 129.686 43.2949 129.648 43.2946H127.746C127.709 43.295 127.672 43.2856 127.639 43.2674C127.607 43.2492 127.579 43.2228 127.56 43.1909L127.563 43.182ZM127.821 35.2854C127.821 34.1683 126.972 33.4542 125.805 33.4542H123.169C123.112 33.4542 123.058 33.4763 123.018 33.5158C122.978 33.5552 122.956 33.6088 122.956 33.6645V36.9506C122.956 36.9781 122.961 37.0053 122.972 37.0307C122.983 37.056 122.998 37.079 123.018 37.0983C123.038 37.1176 123.062 37.1328 123.087 37.1431C123.113 37.1533 123.141 37.1584 123.169 37.158H125.805C126.969 37.158 127.818 36.4261 127.818 35.2942L127.821 35.2854ZM143.918 43.0812V31.8748C143.918 31.8477 143.923 31.8208 143.933 31.7957C143.944 31.7705 143.959 31.7477 143.978 31.7284C143.997 31.7091 144.02 31.6937 144.046 31.6833C144.071 31.6728 144.098 31.6674 144.125 31.6674H151.793C151.82 31.6674 151.848 31.6728 151.873 31.6833C151.898 31.6937 151.921 31.7091 151.94 31.7284C151.96 31.7477 151.975 31.7705 151.985 31.7957C151.995 31.8208 152 31.8477 152 31.8748V33.2586C152 33.3128 151.978 33.3648 151.939 33.4032C151.901 33.4415 151.848 33.4631 151.793 33.4631H146.192C146.137 33.4631 146.084 33.4845 146.045 33.5228C146.006 33.561 145.983 33.613 145.982 33.6675V36.2572C145.983 36.3117 146.006 36.3637 146.045 36.402C146.084 36.4403 146.137 36.4617 146.192 36.4617H151.664C151.691 36.4613 151.719 36.4663 151.744 36.4764C151.77 36.4865 151.793 36.5015 151.812 36.5205C151.832 36.5396 151.847 36.5622 151.858 36.5872C151.869 36.6122 151.874 36.6391 151.874 36.6662V38.0529C151.874 38.08 151.869 38.1068 151.858 38.1318C151.847 38.1568 151.832 38.1795 151.812 38.1985C151.793 38.2175 151.77 38.2325 151.744 38.2426C151.719 38.2527 151.691 38.2577 151.664 38.2573H146.192C146.137 38.2573 146.084 38.2788 146.045 38.317C146.006 38.3553 145.983 38.4073 145.982 38.4618V41.2945C145.983 41.349 146.006 41.401 146.045 41.4393C146.084 41.4775 146.137 41.499 146.192 41.4989H151.79C151.845 41.4989 151.898 41.5205 151.936 41.5588C151.975 41.5972 151.997 41.6492 151.997 41.7034V43.0901C151.997 43.1444 151.975 43.1964 151.936 43.2347C151.898 43.273 151.845 43.2946 151.79 43.2946H144.122C144.068 43.2946 144.015 43.273 143.976 43.2347C143.937 43.1964 143.915 43.1444 143.915 43.0901L143.918 43.0812ZM131.454 37.4425C131.454 33.8512 134.064 31.4274 137.427 31.4274C138.318 31.4071 139.198 31.6205 139.979 32.0457C140.759 32.471 141.412 33.0929 141.87 33.8483C141.884 33.8709 141.894 33.8963 141.898 33.9228C141.902 33.9494 141.901 33.9765 141.894 34.0025C141.887 34.0284 141.874 34.0526 141.857 34.0735C141.84 34.0944 141.819 34.1116 141.795 34.1238L140.451 34.8468C140.407 34.8687 140.357 34.8735 140.31 34.8603C140.264 34.8471 140.224 34.8169 140.199 34.7757C139.902 34.3129 139.493 33.9303 139.009 33.6624C138.525 33.3944 137.981 33.2496 137.427 33.2408C135.174 33.2408 133.503 34.9831 133.503 37.4425C133.503 39.9018 135.174 41.6293 137.427 41.6293C137.981 41.6179 138.524 41.4716 139.008 41.2033C139.491 40.9351 139.9 40.5532 140.199 40.0915C140.225 40.0513 140.265 40.0219 140.311 40.0089C140.357 39.9958 140.407 39.9999 140.451 40.0204L141.798 40.7226C141.824 40.735 141.848 40.753 141.867 40.7755C141.886 40.798 141.9 40.8243 141.907 40.8526C141.915 40.8809 141.916 40.9105 141.91 40.9393C141.905 40.968 141.893 40.9952 141.876 41.0189C140.997 42.3345 139.605 43.4664 137.421 43.4664C134.064 43.4546 131.454 41.016 131.454 37.4425ZM104.756 43.1583V34.3194L101.18 43.2324C101.173 43.2508 101.16 43.2666 101.143 43.2778C101.127 43.2889 101.107 43.2947 101.087 43.2946H100.337C100.317 43.2946 100.298 43.2886 100.282 43.2774C100.266 43.2663 100.254 43.2506 100.247 43.2324L96.6471 34.3194V43.1583C96.6471 43.1944 96.6326 43.2291 96.6067 43.2547C96.5808 43.2802 96.5457 43.2946 96.5091 43.2946H94.7092C94.6724 43.2946 94.6369 43.2803 94.6106 43.2548C94.5842 43.2294 94.569 43.1947 94.5682 43.1583V31.8067C94.5682 31.7698 94.5831 31.7343 94.6095 31.7082C94.636 31.6821 94.6718 31.6674 94.7092 31.6674H97.2981C97.3537 31.6698 97.4076 31.6874 97.4537 31.7182C97.4998 31.7491 97.5363 31.792 97.5591 31.8422L100.7 39.8218L103.844 31.8511C103.866 31.8009 103.903 31.758 103.949 31.7271C103.995 31.6962 104.049 31.6787 104.105 31.6763H106.7C106.718 31.6763 106.736 31.6799 106.753 31.687C106.77 31.694 106.785 31.7043 106.798 31.7173C106.811 31.7303 106.821 31.7456 106.828 31.7625C106.835 31.7794 106.838 31.7974 106.838 31.8156V43.1672C106.838 43.2033 106.823 43.238 106.797 43.2635C106.771 43.2891 106.736 43.3035 106.7 43.3035H104.9C104.881 43.3031 104.862 43.299 104.845 43.2915C104.828 43.2839 104.813 43.2731 104.8 43.2596C104.787 43.246 104.777 43.2301 104.77 43.2127C104.764 43.1953 104.761 43.1768 104.762 43.1583H104.756Z" fill="#0C0C0C"/>
</svg>
